<?xml version="1.0" encoding="utf-8"?>
<!-- Generator: Adobe Illustrator 19.2.1, SVG Export Plug-In . SVG Version: 6.00 Build 0)  -->
<svg version="1.1" id="layer" xmlns="http://www.w3.org/2000/svg" xmlns:xlink="http://www.w3.org/1999/xlink" x="0px" y="0px"
	 viewBox="0 0 652 652" style="enable-background:new 0 0 652 652;" xml:space="preserve">
<style type="text/css">
	.st0{fill:#003D78;}
	.st1{fill:#A6D8F5;}
	.st2{fill:#006BB1;}
	.st3{fill:#E60815;}
</style>
<g>
	<path class="st0" d="M202.7,282.3c3.1,0,5.1-0.6,6-1.6c0.9-1.1,1.4-2.7,1.4-4.8v-38.6c0-2.2-0.5-3.7-1.6-4.4
		c-1.1-0.7-2.9-1.2-5.6-1.4v-2.1h20.5l16,37.6h0.7l15.9-37.6h20.5v2.1c-2.7,0.2-4.6,0.7-5.6,1.5c-1,0.8-1.5,2.8-1.5,5.9v35.9
		c0,3,0.5,4.9,1.5,5.9c1,0.9,2.9,1.4,5.6,1.5v2.1h-27v-2.1c2.4-0.1,4.2-0.5,5.4-1.2c1.2-0.7,1.8-2.3,1.8-4.8v-39.7h-0.6l-19.9,47.7
		H234l-20.1-46.8h-0.4v36.7c0,2.7,0.5,4.7,1.5,5.9c1,1.2,3.2,1.9,6.7,2.1v2.1h-19V282.3z"/>
	<path class="st0" d="M279.5,282.3c2.3-0.1,4-0.3,5-0.8c1.6-0.8,2.5-2.5,2.5-4.9v-39.3c0-2.4-0.8-4-2.3-4.8
		c-0.9-0.5-2.6-0.8-5.1-0.9v-2.1h28.4v2.1c-2.5,0.1-4.3,0.4-5.2,0.9c-1.6,0.8-2.4,2.4-2.4,4.8v39.3c0,2.3,0.6,3.8,1.9,4.6
		c1.3,0.8,3.2,1.2,5.7,1.2v2.1h-28.4V282.3z"/>
	<path class="st0" d="M312.7,265.4h2.3c1.3,6.1,3.4,10.5,6.3,13.2c2.9,2.8,6.2,4.1,9.9,4.1c3.6,0,6.2-0.9,7.7-2.8
		c1.5-1.9,2.3-3.9,2.3-6c0-2.4-0.8-4.4-2.4-5.9c-1-1-3.2-2.3-6.4-3.9l-5.2-2.6c-5.1-2.6-8.8-5.2-10.9-7.7c-2.1-2.5-3.2-5.7-3.2-9.4
		c0-4,1.4-7.7,4.2-11.1c2.8-3.4,7.1-5.2,12.9-5.2c2.9,0,5.8,0.4,8.5,1.4c2.7,0.9,4.3,1.3,4.7,1.3c0.9,0,1.5-0.3,1.8-0.8
		c0.3-0.5,0.6-1.2,0.8-2h2.4v17.7h-2.3c-1.1-4.1-2.9-7.6-5.6-10.6c-2.7-3-5.9-4.5-9.7-4.5c-2.7,0-4.8,0.7-6.4,2.2
		c-1.6,1.5-2.3,3.3-2.3,5.5c0,2.6,0.7,4.5,2.2,5.8c1.4,1.3,4.7,3.2,9.7,5.7l6,3c2.7,1.4,4.8,2.8,6.4,4.5c3,3.1,4.5,6.8,4.5,11.2
		c0,4.1-1.6,8-4.8,11.6c-3.2,3.6-8.3,5.4-15.3,5.4c-1.6,0-3.2-0.2-4.9-0.5c-1.7-0.3-3.3-0.8-4.9-1.4l-1.6-0.6
		c-0.4-0.1-0.7-0.2-1.1-0.3c-0.3-0.1-0.6-0.1-0.9-0.1c-0.8,0-1.4,0.2-1.7,0.7c-0.3,0.5-0.6,1.2-0.8,2.1h-2.3V265.4z"/>
	<path class="st0" d="M357.1,229.5H406l0.1,16.4h-2.3c-0.8-5.9-3-9.8-6.6-11.9c-2-1.1-5.1-1.8-9.1-1.9v42.8c0,3,0.5,5,1.6,5.9
		c1,1,3.2,1.5,6.5,1.5v2.1h-28.9v-2.1c3.2,0,5.3-0.5,6.3-1.5c1-1,1.6-3,1.6-5.9v-42.8c-4,0.1-7,0.7-9.1,1.9
		c-3.9,2.1-6.1,6.1-6.6,11.9h-2.3L357.1,229.5z"/>
	<path class="st0" d="M442.2,254.1c2.3-1.4,3.4-4.7,3.4-9.8c0-3.1-0.4-5.6-1.3-7.5c-1.5-3.1-4.3-4.6-8.2-4.6c-2.2,0-3.6,0.3-4.3,0.8
		c-0.7,0.5-1,1.4-1,2.7v20.7C436.1,256.3,439.9,255.6,442.2,254.1 M410.5,282.3c2.7-0.1,4.6-0.6,5.6-1.5c1-0.9,1.5-2.9,1.5-5.9V239
		c0-3.1-0.6-5.2-1.8-6.1c-0.8-0.6-2.6-1.1-5.4-1.3v-2.1h26.1c5.4,0,9.8,0.6,13.2,1.7c6.5,2.3,9.8,6.4,9.8,12.4
		c0,4.4-1.7,7.9-5.1,10.4c-2.6,1.9-5.4,3.1-8.3,3.7l17.3,23.1c0.5,0.6,0.9,1.1,1.4,1.3c0.5,0.2,1.1,0.3,1.9,0.4v1.9h-16.9L430.8,259
		h0v15.9c0,2.9,0.5,4.8,1.4,5.8c1,1,2.9,1.5,5.7,1.6v2.1h-27.4V282.3z"/>
	<path class="st0" d="M499.8,265.2l-7.8-18.8h-0.7l-7.3,18.8H499.8z M469.3,282.3c2-0.1,3.5-1,4.7-2.7c0.8-1,1.9-3.3,3.3-6.8
		l18-44.5h2.3l18.1,42.7c2,4.8,3.6,7.9,4.6,9.3c1,1.4,2.4,2.1,4.3,2v2.1h-26.3v-2.1c2.6-0.1,4.4-0.3,5.2-0.7
		c0.8-0.3,1.2-1.2,1.2-2.6c0-0.6-0.2-1.6-0.6-2.9c-0.3-0.8-0.6-1.7-1.1-2.8l-2.1-4.9h-18.2c-1.2,3.2-2,5.3-2.3,6.3
		c-0.7,2.1-1.1,3.6-1.1,4.6c0,1.2,0.8,2,2.3,2.5c0.9,0.3,2.3,0.4,4.2,0.5v2.1h-16.6V282.3z"/>
	<path class="st0" d="M527.9,282.3c2.2-0.1,3.8-0.4,4.8-0.9c1.6-0.8,2.4-2.5,2.4-4.8v-39.3c0-2.4-0.8-4-2.3-4.8
		c-0.9-0.5-2.5-0.8-4.9-0.9v-2.1h28.4v2.1c-3.3,0.1-5.5,0.6-6.6,1.4c-1.1,0.8-1.7,2.8-1.7,6v38.4c0,1.8,0.5,3,1.4,3.6
		c0.9,0.6,2.8,0.9,5.5,0.9c4.9,0,9-1.1,12.3-3.2c3.3-2.2,6.2-6.4,8.6-12.6h2.4l-3.3,18.4h-47V282.3z"/>
	<path class="st0" d="M20.7,228.9c0,0,44.7,85.7,71.3,85.7c28.2,0,69.2-85.7,69.2-85.7H20.7z"/>
	<path class="st0" d="M21.6,298.7v74.6h57.2C78.8,373.3,38,367.6,21.6,298.7"/>
	<path class="st0" d="M160.6,298.7v74.6h-57.2C103.4,373.3,144.1,367.6,160.6,298.7"/>
	<path class="st1" d="M161.2,228.9C161.2,228.9,161.2,228.9,161.2,228.9C161.2,228.9,161.2,228.9,161.2,228.9 M20.7,228.9
		c0,0.1,0.2,0.4,0.5,1.1h0C20.9,229.3,20.7,228.9,20.7,228.9"/>
	<path class="st2" d="M161.2,228.9H20.7c0,0,0,0,0,0c0,0.1,0.2,0.4,0.6,1.1c42.1,2,82.3,16.2,117.2,39.7
		C151.2,249.6,160.7,230,161.2,228.9C161.2,228.9,161.2,228.9,161.2,228.9"/>
	<rect x="175.4" y="228" class="st3" width="13.6" height="145.3"/>
	<path class="st0" d="M239.5,317.7l0.4,18h-1.6c-0.8-4.5-2.7-8.1-5.7-10.9c-3-2.7-6.3-4.1-9.7-4.1c-2.7,0-4.8,0.7-6.4,2.2
		c-1.6,1.4-2.4,3.1-2.4,5c0,1.2,0.3,2.2,0.8,3.2c0.8,1.2,2,2.5,3.7,3.7c1.2,0.9,4.1,2.4,8.6,4.6c6.3,3.1,10.5,6,12.7,8.8
		c2.2,2.8,3.3,5.9,3.3,9.5c0,4.5-1.8,8.4-5.3,11.6c-3.5,3.2-8,4.9-13.4,4.9c-1.7,0-3.3-0.2-4.8-0.5c-1.5-0.4-3.4-1-5.7-1.9
		c-1.3-0.5-2.3-0.8-3.1-0.8c-0.7,0-1.4,0.3-2.2,0.8c-0.8,0.5-1.4,1.3-1.9,2.4h-1.5v-20.3h1.5c1.2,5.7,3.4,10.1,6.7,13.1
		c3.3,3,6.9,4.5,10.7,4.5c3,0,5.3-0.8,7.1-2.4c1.8-1.6,2.6-3.5,2.6-5.6c0-1.3-0.3-2.5-1-3.7c-0.7-1.2-1.7-2.3-3.1-3.4
		c-1.4-1.1-3.8-2.5-7.3-4.2c-4.9-2.4-8.4-4.5-10.6-6.2c-2.1-1.7-3.8-3.6-4.9-5.7c-1.2-2.1-1.7-4.4-1.7-6.9c0-4.3,1.6-7.9,4.7-11
		c3.1-3,7.1-4.5,11.9-4.5c1.7,0,3.4,0.2,5.1,0.6c1.2,0.3,2.8,0.9,4.5,1.8c1.8,0.9,3,1.3,3.7,1.3c0.7,0,1.2-0.2,1.6-0.6
		c0.4-0.4,0.8-1.4,1.1-3.1H239.5z"/>
	<path class="st0" d="M268.7,322V344h1.1c3.4,0,5.9-1.1,7.4-3.2c1.5-2.1,2.5-5.3,2.9-9.5h1.5v28.2h-1.5c-0.3-3.1-1-5.6-2-7.5
		c-1-2-2.2-3.3-3.6-4c-1.4-0.7-3.3-1-5.9-1v15.2c0,3,0.1,4.8,0.4,5.4c0.3,0.7,0.7,1.2,1.4,1.6c0.7,0.4,1.8,0.6,3.3,0.6h3.2
		c5,0,9.1-1.2,12.1-3.5c3-2.3,5.2-5.9,6.5-10.6h1.5l-2.4,17.1h-46.5v-1.5h1.8c1.6,0,2.8-0.3,3.8-0.8c0.7-0.4,1.2-1,1.6-1.9
		c0.3-0.6,0.4-2.3,0.4-5v-35.4c0-2.4-0.1-3.9-0.2-4.5c-0.3-0.9-0.8-1.6-1.5-2.1c-1-0.7-2.4-1.1-4.1-1.1h-1.8v-1.5h45.1v15.9h-1.5
		c-0.8-3.9-1.8-6.7-3.2-8.4c-1.4-1.7-3.4-2.9-5.9-3.7c-1.5-0.5-4.3-0.7-8.3-0.7H268.7z"/>
	<path class="st0" d="M355,317.7v18.7h-1.5c-1.2-4.9-3.3-8.6-6.5-11.2c-3.2-2.6-6.8-3.9-10.8-3.9c-3.4,0-6.5,1-9.3,2.9
		c-2.8,1.9-4.9,4.5-6.1,7.6c-1.7,4-2.5,8.4-2.5,13.3c0,4.8,0.6,9.2,1.8,13.2c1.2,4,3.1,7,5.7,9c2.6,2,6,3,10.1,3
		c3.4,0,6.5-0.7,9.3-2.2c2.8-1.5,5.8-4,8.9-7.7v4.6c-3,3.2-6.2,5.4-9.4,6.9c-3.3,1.4-7.1,2.1-11.5,2.1c-5.7,0-10.8-1.2-15.3-3.5
		c-4.5-2.3-7.9-5.6-10.3-9.9c-2.4-4.3-3.6-8.9-3.6-13.8c0-5.1,1.3-10,4-14.6c2.7-4.6,6.3-8.2,10.9-10.7c4.6-2.5,9.4-3.8,14.6-3.8
		c3.8,0,7.8,0.8,12,2.5c2.4,1,4,1.4,4.6,1.4c0.8,0,1.6-0.3,2.2-0.9c0.6-0.6,1-1.6,1.2-3H355z"/>
	<path class="st0" d="M361.4,318.9h27.8v1.5h-1.4c-2.1,0-3.5,0.2-4.3,0.7c-0.8,0.4-1.3,1-1.7,1.8c-0.3,0.8-0.5,2.7-0.5,5.8V355
		c0,4.8,0.4,8,1.1,9.6c0.7,1.6,1.9,2.9,3.6,3.9c1.7,1,3.8,1.6,6.3,1.6c2.9,0,5.4-0.7,7.4-2c2.1-1.3,3.6-3.1,4.6-5.4
		c1-2.3,1.5-6.3,1.5-12v-22c0-2.4-0.2-4.1-0.8-5.2c-0.5-1-1.1-1.7-1.9-2.1c-1.2-0.6-2.9-0.9-5-0.9v-1.5h18.6v1.5h-1.1
		c-1.5,0-2.8,0.3-3.8,0.9c-1,0.6-1.7,1.5-2.2,2.7c-0.3,0.8-0.5,2.4-0.5,4.6v20.5c0,6.3-0.4,10.9-1.3,13.7c-0.8,2.8-2.9,5.4-6.1,7.7
		c-3.2,2.4-7.6,3.5-13.2,3.5c-4.7,0-8.3-0.6-10.8-1.9c-3.5-1.7-5.9-3.9-7.3-6.5c-1.4-2.6-2.1-6.2-2.1-10.7v-26.4
		c0-3.1-0.2-5-0.5-5.8c-0.4-0.8-0.9-1.4-1.8-1.8c-0.8-0.5-2.4-0.7-4.7-0.6V318.9z"/>
	<path class="st0" d="M439.8,348.2v15.1c0,2.9,0.2,4.7,0.5,5.5c0.4,0.8,1,1.4,1.9,1.8c0.9,0.4,2.6,0.7,5,0.7v1.5h-27.6v-1.5
		c2.5,0,4.2-0.2,5.1-0.7c0.9-0.5,1.5-1.1,1.9-1.8c0.4-0.7,0.5-2.6,0.5-5.5v-34.9c0-2.9-0.2-4.7-0.5-5.5c-0.4-0.7-1-1.4-1.9-1.8
		c-0.9-0.4-2.6-0.7-5-0.7v-1.5h25c6.5,0,11.3,0.5,14.3,1.4c3,0.9,5.5,2.6,7.4,5c1.9,2.4,2.9,5.3,2.9,8.5c0,4-1.4,7.3-4.3,9.8
		c-1.8,1.6-4.4,2.9-7.7,3.7l13,18.2c1.7,2.4,2.9,3.8,3.6,4.4c1.1,0.8,2.3,1.3,3.8,1.4v1.5h-17l-17.4-24.5H439.8z M439.8,321.8v23.6
		h2.3c3.7,0,6.4-0.3,8.3-1c1.8-0.7,3.3-1.9,4.3-3.7c1-1.8,1.6-4.1,1.6-6.9c0-4.1-1-7.1-2.9-9.1c-1.9-2-5-2.9-9.3-2.9H439.8z"/>
	<path class="st0" d="M506.7,371.3v1.5h-28.2v-1.5h1.8c1.6,0,2.8-0.3,3.8-0.8c0.7-0.4,1.2-1,1.6-1.9c0.3-0.6,0.4-2.3,0.4-5v-35.4
		c0-2.8-0.2-4.5-0.4-5.2c-0.3-0.7-0.9-1.3-1.8-1.8c-0.9-0.5-2.1-0.8-3.6-0.8h-1.8v-1.5h28.2v1.5h-1.8c-1.6,0-2.8,0.3-3.8,0.8
		c-0.7,0.4-1.2,1-1.6,1.9c-0.3,0.6-0.4,2.3-0.4,5v35.4c0,2.8,0.1,4.5,0.5,5.2c0.3,0.7,0.9,1.3,1.8,1.8c0.9,0.5,2.1,0.8,3.6,0.8
		H506.7z"/>
	<path class="st0" d="M559.9,318.9v14.6h-1.4c-0.8-3.4-1.8-5.8-2.8-7.3c-1-1.5-2.5-2.6-4.2-3.5c-1-0.5-2.8-0.7-5.3-0.7h-4v41.5
		c0,2.8,0.2,4.5,0.5,5.2c0.3,0.7,0.9,1.3,1.8,1.8c0.9,0.5,2.1,0.8,3.6,0.8h1.8v1.5h-28.2v-1.5h1.8c1.6,0,2.8-0.3,3.8-0.8
		c0.7-0.4,1.2-1,1.6-1.9c0.3-0.6,0.4-2.3,0.4-5V322h-3.9c-3.6,0-6.3,0.8-7.9,2.3c-2.3,2.2-3.8,5.2-4.4,9.2h-1.5v-14.6H559.9z"/>
	<path class="st0" d="M620.7,318.9v1.5c-1.8,0.2-3.1,0.8-4.1,1.5c-1.3,1.1-3.4,4.1-6.3,9.1l-11.7,19.5v13c0,2.8,0.1,4.5,0.4,5.2
		c0.3,0.7,0.9,1.3,1.7,1.8c0.9,0.5,2,0.8,3.4,0.8h3v1.5H577v-1.5h2.8c1.6,0,2.8-0.3,3.8-0.8c0.7-0.4,1.2-1,1.6-1.9
		c0.3-0.6,0.4-2.3,0.4-5v-10.8L573,329.7c-2.5-4.6-4.3-7.2-5.3-8c-1-0.8-2.4-1.2-4.1-1.3v-1.5h25.8v1.5h-1.2c-1.6,0-2.7,0.2-3.3,0.7
		c-0.6,0.4-0.9,0.9-0.9,1.4c0,1,1.1,3.3,3.2,7.2l9.7,17.8l9.7-16.2c2.4-4,3.6-6.6,3.6-7.9c0-0.7-0.3-1.3-1-1.8
		c-0.9-0.7-2.6-1.1-5-1.2v-1.5H620.7z"/>
	<polygon class="st0" points="21.7,409.7 21.7,391.9 24.5,391.9 31.4,407.5 38.2,391.9 41,391.9 41,409.7 39.1,409.7 39.1,394.3 
		39.1,394.3 32.3,409.7 30.5,409.7 23.7,394.3 23.6,394.3 23.6,409.7 	"/>
	<path class="st0" d="M61.6,403.7h-11c0,1.3,0.4,2.5,1.1,3.4c0.9,1.1,2.1,1.7,3.6,1.7c2.4,0,3.9-1.1,4.5-3.3h1.8
		c-0.8,3.1-2.9,4.6-6.3,4.6c-2.2,0-3.8-0.7-4.9-2c-1-1.2-1.5-2.8-1.5-4.8c0-1.9,0.5-3.4,1.5-4.7c1.2-1.4,2.8-2.1,4.9-2.1
		c2.2,0,3.8,0.8,5,2.3C61.2,400.1,61.7,401.7,61.6,403.7 M50.6,402.4h9.3c0-1.3-0.5-2.3-1.3-3.2c-0.8-0.9-2-1.4-3.3-1.4
		c-1.4,0-2.5,0.5-3.3,1.4C51.2,400,50.7,401.1,50.6,402.4"/>
	<path class="st0" d="M68.9,409.7v-12.8h1.6v2.2h0.1c1-1.7,2.6-2.5,4.7-2.5c1,0,1.9,0.2,2.6,0.6c0.7,0.4,1.3,1.1,1.5,1.9
		c0.8-1.7,2.4-2.5,4.6-2.5c3.2,0,4.8,1.5,4.8,4.5v8.7h-1.8v-8.6c0-2.2-1.1-3.3-3.4-3.3c-2.6,0-3.9,1.5-3.9,4.6v7.3h-1.7V401
		c0-2.1-1-3.2-3-3.2c-1.4,0-2.5,0.4-3.3,1.3c-0.7,0.8-1,2-1,3.4v7.2H68.9z"/>
	<path class="st0" d="M96.9,409.7v-17.7h1.8v7.4h0.1c0.4-0.9,1-1.6,2-2.1c0.9-0.5,1.9-0.7,3-0.7c2.1,0,3.7,0.7,4.9,2
		c1.1,1.2,1.6,2.8,1.6,4.7c0,1.9-0.5,3.5-1.6,4.7c-1.2,1.4-2.8,2-4.9,2c-1.2,0-2.2-0.3-3.1-0.8c-0.9-0.5-1.6-1.2-2-2h-0.1v2.4H96.9z
		 M108.4,403.3c0-1.5-0.4-2.7-1.1-3.7c-0.9-1.2-2.1-1.7-3.6-1.7c-1.7,0-3,0.6-3.9,1.7c-0.7,1-1.1,2.2-1.1,3.7c0,1.5,0.4,2.7,1.1,3.7
		c0.9,1.2,2.2,1.7,3.9,1.7c1.6,0,2.8-0.6,3.6-1.7C108,406,108.4,404.8,108.4,403.3"/>
	<path class="st0" d="M129.9,403.7h-11c0,1.3,0.4,2.5,1.1,3.4c0.9,1.1,2.1,1.7,3.6,1.7c2.4,0,3.9-1.1,4.5-3.3h1.8
		c-0.8,3.1-2.9,4.6-6.3,4.6c-2.2,0-3.8-0.7-4.9-2c-1-1.2-1.5-2.8-1.5-4.8c0-1.9,0.5-3.4,1.5-4.7c1.2-1.4,2.8-2.1,4.9-2.1
		c2.2,0,3.8,0.8,4.9,2.3C129.5,400.1,129.9,401.7,129.9,403.7 M118.8,402.4h9.3c0-1.3-0.5-2.3-1.3-3.2c-0.9-0.9-2-1.4-3.3-1.4
		c-1.4,0-2.5,0.5-3.3,1.4C119.4,400,119,401.1,118.8,402.4"/>
	<path class="st0" d="M137.1,409.7v-12.8h1.6v3h0.1c0.4-1,1.1-1.8,2.1-2.4c0.9-0.6,2.1-0.8,3.3-0.8v1.6c-1.6-0.1-2.8,0.3-3.8,1.2
		c-1,0.9-1.5,2-1.5,3.4v6.8H137.1z"/>
	<path class="st0" d="M169.5,396.5c2.1,0,3.8,0.7,5,2c1.2,1.3,1.8,2.8,1.8,4.8c0,1.9-0.6,3.5-1.8,4.8c-1.2,1.3-2.9,2-5,2
		c-2.1,0-3.8-0.7-5-2c-1.2-1.3-1.8-2.8-1.8-4.8c0-1.9,0.6-3.5,1.8-4.8C165.7,397.2,167.3,396.5,169.5,396.5 M169.5,397.8
		c-1.6,0-2.9,0.6-3.8,1.7c-0.8,1-1.3,2.3-1.3,3.8c0,1.5,0.4,2.7,1.3,3.7c0.9,1.1,2.2,1.7,3.8,1.7c1.6,0,2.9-0.6,3.8-1.7
		c0.8-1,1.3-2.3,1.3-3.7c0-1.5-0.4-2.7-1.3-3.8C172.3,398.4,171,397.8,169.5,397.8"/>
	<path class="st0" d="M189.3,396.9v1.3h-2.8v11.5h-1.8v-11.5h-2.4v-1.3h2.4v-1.2c0-1.2,0.2-2.1,0.7-2.7c0.5-0.7,1.5-1,2.8-1
		c0.5,0,1,0,1.5,0.1v1.3c-0.5-0.1-0.9-0.1-1.3-0.1c-0.9,0-1.4,0.2-1.7,0.7c-0.2,0.3-0.2,0.9-0.2,1.8v1.1H189.3z"/>
	<polygon class="st0" points="208.8,409.7 208.8,391.9 211.5,391.9 218.4,407.5 225.2,391.9 228,391.9 228,409.7 226.1,409.7 
		226.1,394.3 226.1,394.3 219.3,409.7 217.5,409.7 210.7,394.3 210.7,394.3 210.7,409.7 	"/>
	<path class="st0" d="M236.6,391.9h1.8v2.5h-1.8V391.9z M236.6,396.9h1.8v12.8h-1.8V396.9z"/>
	<path class="st0" d="M256.9,400.6h-1.8c0-0.9-0.4-1.6-1.2-2.1c-0.7-0.4-1.5-0.7-2.6-0.7c-0.9,0-1.7,0.2-2.3,0.5
		c-0.7,0.4-1.1,1-1.1,1.7c0,1,1,1.8,3,2.2l2.3,0.5c2.7,0.5,4.1,1.7,4.1,3.6c0,1.3-0.6,2.3-1.9,3c-1.1,0.6-2.4,0.9-3.9,0.9
		c-3.7,0-5.6-1.5-5.9-4.5h1.8c0.1,1,0.5,1.8,1.3,2.4c0.8,0.6,1.8,0.8,3,0.8c1,0,1.8-0.2,2.6-0.5c0.9-0.4,1.3-1.1,1.3-1.9
		c0-1.1-1-1.9-3.1-2.3l-2.3-0.4c-1.3-0.3-2.3-0.6-2.9-1.1c-0.8-0.6-1.1-1.4-1.1-2.4c0-1.2,0.6-2.1,1.8-2.8c1-0.5,2.2-0.8,3.6-0.8
		c1.5,0,2.7,0.3,3.7,1C256.3,398.2,256.9,399.3,256.9,400.6"/>
	<path class="st0" d="M267.6,393v3.8h2.9v1.3h-2.9v8.6c0,0.6,0.1,1,0.2,1.2c0.2,0.3,0.6,0.5,1.2,0.5c0.4,0,0.9,0,1.5-0.1v1.3
		c-0.2,0-0.4,0-0.8,0c-0.3,0-0.6,0-0.8,0c-1.2,0-2-0.2-2.4-0.6c-0.5-0.4-0.7-1.2-0.7-2.3v-8.8h-2.5v-1.3h2.5V393H267.6z"/>
	<path class="st0" d="M278,409.7v-12.8h1.6v3h0.1c0.4-1,1.1-1.8,2.1-2.4c0.9-0.6,2.1-0.8,3.3-0.8v1.6c-1.6-0.1-2.8,0.3-3.8,1.2
		c-1,0.9-1.5,2-1.5,3.4v6.8H278z"/>
	<path class="st0" d="M293.2,400.8h-1.8c0.1-1.4,0.7-2.5,1.8-3.3c1-0.7,2.3-1,4.1-1c3.5,0,5.3,1.4,5.3,4.1v6.8c0,0.6,0.3,0.9,1,0.9
		c0.2,0,0.4,0,0.6-0.1v1.3c-0.4,0.1-0.7,0.1-1.1,0.1c-0.8,0-1.4-0.2-1.7-0.6c-0.2-0.3-0.4-0.9-0.4-1.6h-0.1c-0.7,0.9-1.3,1.6-2,1.9
		c-0.8,0.4-1.9,0.7-3.2,0.7c-1.4,0-2.5-0.3-3.4-0.9c-0.9-0.7-1.4-1.6-1.4-2.8c0-1.6,0.8-2.7,2.4-3.3c0.8-0.3,2.6-0.6,5.3-0.9
		c0.8-0.1,1.4-0.2,1.7-0.4c0.4-0.3,0.6-0.7,0.6-1.3c0-1.8-1.3-2.6-3.8-2.6C294.6,397.8,293.3,398.8,293.2,400.8 M300.8,404.7v-2
		h-0.1c-0.1,0.3-0.6,0.4-1.5,0.6c-1,0.1-2,0.3-3.1,0.4c-1.2,0.2-2,0.4-2.6,0.7c-0.7,0.4-1.1,1-1.1,1.8c0,0.7,0.3,1.4,1,1.8
		c0.6,0.5,1.4,0.7,2.2,0.7c1.4,0,2.6-0.4,3.5-1.1C300.3,406.9,300.8,405.9,300.8,404.7"/>
	<rect x="311" y="391.9" class="st0" width="1.7" height="17.7"/>
	<path class="st0" d="M350.9,400.7v9h-1.4l-0.3-3.2h-0.1c-1.3,2.4-3.6,3.6-6.9,3.6c-3,0-5.3-0.9-7-2.8c-1.6-1.7-2.3-3.8-2.3-6.4
		c0-2.6,0.8-4.7,2.3-6.4c1.7-1.9,4.1-2.8,7-2.8c2.2,0,4,0.5,5.4,1.5c1.5,1,2.5,2.5,2.8,4.4h-1.9c-0.1-1.1-0.8-2.1-1.9-3
		c-1.2-1-2.8-1.5-4.5-1.5c-2.5,0-4.4,0.8-5.7,2.4c-1.2,1.4-1.8,3.2-1.8,5.4c0,2.1,0.6,3.9,1.8,5.3c1.3,1.6,3.2,2.5,5.7,2.5
		c2.2,0,3.9-0.6,5.1-1.8c1.2-1.2,1.8-2.7,1.8-4.7h-6.8v-1.4H350.9z"/>
	<path class="st0" d="M359.1,409.7v-12.8h1.6v3h0.1c0.4-1,1.1-1.8,2.1-2.4c0.9-0.6,2.1-0.8,3.3-0.8v1.6c-1.6-0.1-2.8,0.3-3.8,1.2
		c-1,0.9-1.5,2-1.5,3.4v6.8H359.1z"/>
	<path class="st0" d="M378.9,396.5c2.1,0,3.8,0.7,5,2c1.2,1.3,1.8,2.8,1.8,4.8c0,1.9-0.6,3.5-1.8,4.8c-1.2,1.3-2.9,2-5,2
		c-2.1,0-3.8-0.7-5-2c-1.2-1.3-1.8-2.8-1.8-4.8c0-1.9,0.6-3.5,1.8-4.8C375.1,397.2,376.8,396.5,378.9,396.5 M378.9,397.8
		c-1.6,0-2.9,0.6-3.8,1.7c-0.8,1-1.3,2.3-1.3,3.8c0,1.5,0.4,2.7,1.3,3.7c0.9,1.1,2.2,1.7,3.8,1.7c1.6,0,2.9-0.6,3.8-1.7
		c0.8-1,1.3-2.3,1.3-3.7c0-1.5-0.4-2.7-1.3-3.8C381.7,398.4,380.5,397.8,378.9,397.8"/>
	<path class="st0" d="M404.8,396.9v12.8h-1.6v-2.3h-0.1c-0.4,0.8-1.1,1.5-2,2c-0.9,0.5-1.9,0.7-2.9,0.7c-3.4,0-5-1.6-5-4.9v-8.3h1.8
		v8.3c0,2.4,1.3,3.5,3.8,3.5c1.4,0,2.5-0.5,3.3-1.6c0.7-0.9,1-2.1,1-3.6v-6.7H404.8z"/>
	<path class="st0" d="M413,414.4v-17.6h1.6v2.4h0.1c0.4-0.9,1.1-1.5,2-2.1c0.9-0.5,2-0.8,3.1-0.8c2.1,0,3.7,0.7,4.9,2
		c1,1.2,1.6,2.8,1.6,4.7c0,1.9-0.5,3.5-1.6,4.7c-1.2,1.4-2.8,2-4.9,2c-1.1,0-2.1-0.2-3-0.7c-0.9-0.5-1.6-1.2-2-2.1h-0.1v7.2H413z
		 M424.5,403.3c0-1.5-0.4-2.7-1.1-3.7c-0.9-1.2-2.1-1.7-3.6-1.7c-3.4,0-5,1.8-5,5.5c0,1.5,0.4,2.7,1.1,3.7c0.9,1.2,2.2,1.7,3.9,1.7
		c1.6,0,2.8-0.6,3.6-1.7C424.1,406,424.5,404.8,424.5,403.3"/>
</g>
</svg>
