<!-- <svg xmlns="http://www.w3.org/2000/svg" width="110" height="21"><path fill="#CBD5E1" fill-rule="nonzero" d="M56.63 10.2c-.908 0-1.563.287-2.226.58v6.622c.635.059 1 .059 1.603.059 2.18 0 2.48-.963 2.48-2.308V11.99c0-.993-.342-1.79-1.857-1.79Zm-14.478-.362c-1.513 0-1.858.801-1.858 1.793v.557h3.714v-.557c0-.992-.345-1.793-1.856-1.793Zm-28.048 6.893c0 .785.384 1.193 1.231 1.193.91 0 1.447-.286 2.11-.58v-1.57H15.46c-.941 0-1.355.168-1.355.957Zm56.61-6.532c-1.515 0-2.04.798-2.04 1.791v3.624c0 .995.525 1.795 2.04 1.795 1.511 0 2.04-.8 2.04-1.795V11.99c0-.993-.529-1.79-2.04-1.79ZM6.68 20.795H2.225V10.396H0V6.813h2.226V4.661C2.226 1.738 3.482 0 7.052 0h2.972v3.584H8.166c-1.39 0-1.481.5-1.481 1.435l-.006 1.794h3.366l-.394 3.583H6.679v10.399Zm15.222.027h-3.713l-.16-.906a8.76 8.76 0 0 1-4.205 1.053c-2.723 0-4.172-1.755-4.172-4.18 0-2.863 1.691-3.884 4.716-3.884h3.079v-.619c0-1.46-.174-1.89-2.503-1.89h-3.808l.372-3.583h4.162c5.11 0 6.232 1.558 6.232 5.502v8.507Zm12.622-10.163c-2.31-.382-2.973-.466-4.084-.466-1.997 0-2.6.425-2.6 2.06v3.094c0 1.635.603 2.062 2.6 2.062 1.111 0 1.774-.086 4.084-.47v3.496c-2.023.437-3.341.552-4.455.552-4.782 0-6.682-2.425-6.682-5.93v-2.51c0-3.506 1.9-5.936 6.682-5.936 1.114 0 2.432.115 4.455.555v3.493Zm13.938 4.399h-8.167v.289c0 1.635.603 2.062 2.6 2.062 1.793 0 2.889-.086 5.194-.47v3.496c-2.223.437-3.382.552-5.564.552-4.782 0-6.684-2.425-6.684-5.93v-2.87c0-3.065 1.411-5.576 6.311-5.576s6.31 2.482 6.31 5.577v2.87Zm14.478.066c0 3.387-1.003 5.857-7.082 5.857-2.196 0-3.483-.186-5.906-.546V1.076L54.403.36v6.772c.962-.345 2.208-.52 3.34-.52 4.454 0 5.196 1.925 5.196 5.02v3.492Zm14.272.074c0 2.921-1.25 5.755-6.482 5.755-5.234 0-6.508-2.834-6.508-5.755v-2.821c0-2.923 1.274-5.757 6.508-5.757 5.232 0 6.482 2.834 6.482 5.757v2.82Zm14.263 0c0 2.921-1.252 5.755-6.483 5.755-5.234 0-6.508-2.834-6.508-5.755v-2.821c0-2.923 1.274-5.757 6.508-5.757 5.231 0 6.483 2.834 6.483 5.757v2.82Zm14.637 5.597h-4.826l-4.082-6.573v6.573H92.75V1.076l4.454-.717v12.695l4.082-6.24h4.826l-4.456 6.81 4.456 7.17ZM84.976 10.199c-1.513 0-2.038.798-2.038 1.791v3.624c0 .995.525 1.795 2.038 1.795 1.51 0 2.045-.8 2.045-1.795V11.99c0-.993-.534-1.79-2.045-1.79Zm23.677 8.143c.75 0 1.347.59 1.347 1.327 0 .748-.598 1.331-1.353 1.331-.751 0-1.36-.583-1.36-1.331 0-.737.609-1.327 1.36-1.327h.006Zm-.006.206c-.604 0-1.098.502-1.098 1.12 0 .63.494 1.126 1.104 1.126.61.006 1.097-.495 1.097-1.12 0-.624-.487-1.126-1.097-1.126h-.006Zm-.256 1.893h-.244v-1.48c.128-.018.25-.035.434-.035.232 0 .383.047.477.112.09.065.138.165.138.306 0 .195-.133.312-.298.36v.011c.134.024.225.141.256.359.036.23.073.318.097.366h-.256c-.036-.048-.073-.183-.104-.378-.036-.188-.134-.259-.33-.259h-.17v.638Zm0-.82h.177c.2 0 .371-.07.371-.254 0-.13-.096-.259-.37-.259-.08 0-.136.006-.178.012v.502Z"/></svg> -->

<!-- <svg xmlns="http://www.w3.org/2000/svg" viewBox="0 0 256 256" width="110" height="21">
  <path fill="#CBD5E1" d="M114.8 13.1c2.6-1.5 5.6-2.2 8.7-2.2 6 0 11.7 2.4 15.8 6.6 3.7-1.4 7.7-2.2 11.8-2.2 20.2 0 36.5 16.3 36.5 36.5 0 4.1-.7 8.1-2.2 11.8 4.2 4.1 6.6 9.7 6.6 15.8 0 6-2.4 11.7-6.6 15.8 1.4 3.7 2.2 7.7 2.2 11.8 0 20.2-16.3 36.5-36.5 36.5-4.1 0-8.1-.7-11.8-2.2-4.1 4.2-9.7 6.6-15.8 6.6-2.1 0-4.1-.3-6-.7-.1-.1-.2-.1-.4-.1-.6 0-1.1.2-1.6.5-.2.1-.4.3-.6.4l-29.4 17c-2.3 1.3-5 .1-5-2.6v-33.4c-1.6-1-3.1-2.2-4.6-3.5-4.1 1.4-8.1 2.2-11.8 2.2-20.2 0-36.5-16.3-36.5-36.5 0-4.1.7-8.1 2.2-11.8-4.2-4.1-6.6-9.7-6.6-15.8 0-6 2.4-11.7 6.6-15.8-1.4-3.7-2.2-7.7-2.2-11.8 0-20.2 16.3-36.5 36.5-36.5 4.1 0 8.1.7 11.8 2.2 4.1-4.2 9.7-6.6 15.8-6.6 4.1 0 8.1.7 11.8 2.2 3.7-4.2 9.4-6.6 15.4-6.6 2.6 0 5.1.4 7.4 1.1.4.1.8-.1 1-.4.1-.2.1-.4.1-.6V13.1c0-2.7 2.7-4 5-2.6L114.8 13.1zM128 9.5c1.8 0 3.6.2 5.3.6 2.2.5 4.3 1.2 6.3 2.1 2.1.9 4 2.1 5.8 3.4 3.4 2.6 6.4 5.9 9 9.6 2.5 3.7 4.6 7.7 6.3 12 .8 2.1 1.5 4.2 2.1 6.3.4 1.7.6 3.5.6 5.3v12.2c0 1.8-.2 3.6-.6 5.3-.6 2.2-1.2 4.3-2.1 6.3-1.7 4.3-3.8 8.3-6.3 12-2.5 3.7-5.5 7-9 9.6-1.8 1.3-3.7 2.5-5.8 3.4-2 .9-4.1 1.6-6.3 2.1-1.7.4-3.5.6-5.3.6-2.6 0-5.1-.4-7.4-1.1-4.3-1.3-8.3-3.4-12-6.3-3.7-2.9-7-5.9-9.6-9-1.8-2.1-3.4-4.3-4.8-6.7-1.4-2.4-2.6-4.8-3.4-7.4-.4-1.7-.6-3.5-.6-5.3v-12.2c0-1.8.2-3.6.6-5.3.5-2.2 1.2-4.3 2.1-6.3 1.3-2.6 2.5-5 3.9-7.4 1.4-2.4 3-4.8 4.8-6.7 2.5-2.5 5.3-4.7 8.5-6.3 1.7-.9 3.5-1.6 5.3-2.1 2.2-.6 4.3-.8 6.3-.8zm0 10.7c-4.7 0-8.9 1.8-12.2 5.1-3.3 3.3-5.1 7.5-5.1 12.2v7.4c0 4.7 1.8 8.9 5.1 12.2 3.3 3.3 7.5 5.1 12.2 5.1h7.4c4.7 0 8.9-1.8 12.2-5.1 3.3-3.3 5.1-7.5 5.1-12.2v-7.4c0-4.7-1.8-8.9-5.1-12.2-3.3-3.3-7.5-5.1-12.2-5.1h-7.4z"/>
</svg> -->
<svg version="1.1" id="Layer_1" xmlns:x="ns_extend;" xmlns:i="ns_ai;" xmlns:graph="ns_graphs;" xmlns="http://www.w3.org/2000/svg" xmlns:xlink="http://www.w3.org/1999/xlink" x="0px" y="0px" viewBox="0 0 329.1 81" style="enable-background:new 0 0 329.1 81;" xml:space="preserve">
 <style type="text/css">
  .st0{fill:#FFFFFF;}
 </style>
 <metadata>
  <sfw xmlns="ns_sfw;">
   <slices>
   </slices>
   <sliceSourceBounds bottomLeftOrigin="true" height="81" width="329.1" x="35.4" y="-240.7">
   </sliceSourceBounds>
  </sfw>
 </metadata>
 <g>
  <path class="st0" d="M234.7,31.5c-4.8,0-8.3,1.7-10,4.8l-0.9,1.7v-5.7h-7.9v34.5h8.3V46.3c0-4.9,2.7-7.7,7.3-7.7c4.4,0,7,2.7,7,7.5
		v20.7h8.3V44.6C246.8,36.4,242.3,31.5,234.7,31.5z M194.5,31.5c-9.8,0-15.8,6.1-15.8,15.9v4.8c0,9.5,6.1,15.3,16,15.3
		c6.6,0,11.2-2.4,14.1-7.4l-5.1-3c-2.2,2.9-5.6,4.6-9,4.6c-5,0-8-3.1-8-8.3v-1.4h23.1v-5.7C209.8,37.4,203.8,31.5,194.5,31.5
		L194.5,31.5z M202.3,46.7h-15.6v-0.8c0-5.7,2.8-8.8,7.8-8.8c4.9,0,7.8,3.1,7.8,8.3L202.3,46.7z M329.1,26.7v-6.6h-28.7v6.6h10.1
		v33.5h-10.1v6.6h28.7v-6.6h-10.1V26.7H329.1z M111.6,19.1c-12.8,0-20.8,8-20.8,20.8v7c0,12.9,8,20.8,20.8,20.8s20.8-8,20.8-20.8v-7
		C132.4,27.1,124.4,19.1,111.6,19.1z M123.8,47.4c0,8.5-4.4,13.4-12.2,13.4S99.4,56,99.4,47.4v-7.9c0-8.5,4.5-13.4,12.2-13.4
		s12.2,4.9,12.2,13.4L123.8,47.4z M158.5,31.5c-4.4,0-8.1,1.8-10.1,4.8l-0.9,1.4v-5.4h-7.9v46.3h8.3V61.9l0.9,1.3
		c1.9,2.8,5.5,4.4,9.8,4.4c7.2,0,14.4-4.7,14.4-15.1v-5.9C172.9,39.1,168.4,31.5,158.5,31.5L158.5,31.5z M164.6,52.1
		c0,5.6-3.2,9-8.5,9c-4.9,0-8.3-3.6-8.3-8.9v-5.2c0-5.3,3.4-9,8.3-9c5.2,0,8.4,3.4,8.4,9L164.6,52.1z M269.7,20.1L253,66.8h8.4
		l3.2-10h19.2l0,0.1l3.2,9.9h8.4l-16.8-46.7L269.7,20.1z M266.7,50.2l7.6-23.6l7.5,23.6H266.7z">
  </path>
  <path class="st0" d="M74.6,33.1c1.8-5.5,1.2-11.6-1.7-16.6c-4.4-7.7-13.3-11.6-22-9.8C47.1,2.4,41.5,0,35.7,0
		C26.8,0,19,5.7,16.2,14.1c-5.7,1.2-10.6,4.7-13.5,9.8c-4.4,7.7-3.4,17.3,2.5,23.9C3.4,53.4,4.1,59.4,7,64.4
		c4.4,7.7,13.3,11.7,22,9.8c3.9,4.3,9.4,6.8,15.2,6.8c8.9,0,16.7-5.7,19.5-14.1c5.7-1.2,10.6-4.7,13.5-9.8
		C81.6,49.4,80.6,39.7,74.6,33.1z M44.2,75.7c-3.6,0-7-1.2-9.7-3.5c0.1-0.1,0.4-0.2,0.5-0.3l16.1-9.3c0.8-0.5,1.3-1.3,1.3-2.3V37.6
		l6.8,3.9c0.1,0,0.1,0.1,0.1,0.2v18.8C59.4,68.9,52.6,75.7,44.2,75.7z M11.6,61.8c-1.8-3.1-2.4-6.7-1.8-10.2
		c0.1,0.1,0.3,0.2,0.5,0.3l16.1,9.3c0.8,0.5,1.8,0.5,2.6,0l19.7-11.4v7.9c0,0.1,0,0.2-0.1,0.2l-16.3,9.4
		C25.1,71.5,15.8,69,11.6,61.8L11.6,61.8z M7.4,26.6c1.8-3.1,4.6-5.4,7.9-6.7v19.2c0,0.9,0.5,1.8,1.3,2.3l19.7,11.4l-6.8,3.9
		c-0.1,0-0.2,0.1-0.2,0l-16.3-9.4C5.6,43.1,3.2,33.8,7.4,26.6L7.4,26.6z M63.4,39.6L43.7,28.2l6.8-3.9c0.1,0,0.2-0.1,0.2,0L67,33.7
		c7.3,4.2,9.7,13.5,5.5,20.7c-1.8,3.1-4.6,5.4-7.9,6.6V41.9C64.7,41,64.2,40.1,63.4,39.6L63.4,39.6z M70.1,29.4
		c-0.1-0.1-0.3-0.2-0.5-0.3l-16.1-9.3c-0.8-0.5-1.8-0.5-2.6,0L31.2,31.2v-7.9c0-0.1,0-0.2,0.1-0.2l16.3-9.4
		c7.3-4.2,16.5-1.7,20.7,5.6C70.1,22.3,70.7,25.9,70.1,29.4L70.1,29.4z M27.5,43.4l-6.8-3.9c-0.1,0-0.1-0.1-0.1-0.2V20.5
		c0-8.4,6.8-15.2,15.2-15.2c3.6,0,7,1.2,9.7,3.5c-0.1,0.1-0.3,0.2-0.5,0.3l-16.1,9.3c-0.8,0.5-1.3,1.3-1.3,2.3V43.4z M31.2,35.4
		l8.8-5.1l8.8,5.1v10.1l-8.8,5.1l-8.8-5.1L31.2,35.4z">
  </path>
 </g>
</svg>