<?xml version="1.0" encoding="UTF-8"?>
<svg id="Layer_2" data-name="Layer 2" xmlns="http://www.w3.org/2000/svg" xmlns:xlink="http://www.w3.org/1999/xlink" viewBox="0 0 433.75 69.83">
  <defs>
    <style>
      .cls-1 {
        fill: #fff;
      }

      .cls-2 {
        fill: #6967af;
      }

      .cls-3 {
        fill: url(#linear-gradient);
      }
    </style>
    <linearGradient id="linear-gradient" x1="-102.94" y1="-1464.87" x2="-104.8" y2="-1466.27" gradientTransform="translate(3044.03 -42464.24) scale(29 -29)" gradientUnits="userSpaceOnUse">
      <stop offset="0" stop-color="#f1f5f9" stop-opacity="0"/>
      <stop offset="1" stop-color="#f1f5f9"/>
    </linearGradient>
  </defs>
  <g id="Layer_1-2" data-name="Layer 1">
    <g>
      <g>
        <path class="cls-1" d="m125.39,50.79c0,.49-.09.94-.27,1.36-.18.42-.43.78-.73,1.09-.31.31-.67.55-1.09.72-.42.17-.86.26-1.34.26-.42,0-.84-.08-1.27-.24s-.81-.41-1.14-.76l-24.88-25.98v26.45h-6.81V19.04c0-.7.2-1.33.59-1.9.39-.57.89-.99,1.51-1.27.65-.26,1.31-.33,1.99-.2.68.13,1.27.45,1.75.96l24.88,25.96v-26.45h6.81v34.65Z"/>
        <path class="cls-1" d="m167.24,53.69h-24.57c-.94,0-1.97-.17-3.09-.5-1.12-.33-2.15-.88-3.1-1.64s-1.75-1.75-2.38-2.96c-.64-1.21-.96-2.7-.96-4.47v-24.57c0-.47.09-.92.26-1.34.17-.42.41-.79.72-1.1.31-.31.67-.56,1.09-.73.42-.17.87-.26,1.36-.26h30.67v6.81h-27.29v21.19c0,.89.24,1.57.71,2.04.47.47,1.16.71,2.07.71h24.52v6.81Zm-3.06-15.35h-21.5v-6.86h21.5v6.86Z"/>
        <path class="cls-1" d="m208.31,53.69h-31.06c-.49,0-.94-.09-1.36-.26-.42-.17-.78-.42-1.09-.72s-.55-.67-.72-1.09c-.17-.42-.26-.87-.26-1.36V16.14h6.81v30.75h27.69v6.81Z"/>
        <path class="cls-1" d="m252.16,38.5c0,2.29-.39,4.39-1.18,6.31-.79,1.92-1.88,3.58-3.27,4.98-1.4,1.4-3.05,2.48-4.96,3.26-1.91.78-3.99,1.17-6.25,1.17h-9.22c-2.25,0-4.34-.39-6.26-1.17-1.92-.78-3.58-1.86-4.98-3.26-1.4-1.4-2.49-3.05-3.29-4.98-.79-1.92-1.19-4.03-1.19-6.31v-7.18c0-2.27.4-4.37,1.19-6.3.79-1.93,1.89-3.59,3.29-4.98,1.4-1.39,3.06-2.48,4.98-3.26,1.92-.79,4.01-1.18,6.26-1.18h9.22c2.25,0,4.33.39,6.25,1.18,1.91.79,3.57,1.87,4.96,3.26,1.4,1.39,2.49,3.05,3.27,4.98.79,1.93,1.18,4.03,1.18,6.3v7.18Zm-6.81-7.18c0-1.34-.21-2.56-.64-3.65-.43-1.09-1.03-2.03-1.81-2.8-.78-.78-1.71-1.38-2.8-1.81s-2.29-.64-3.6-.64h-9.22c-1.33,0-2.54.21-3.63.64-1.09.43-2.03,1.03-2.82,1.81-.79.78-1.39,1.71-1.82,2.8-.43,1.09-.64,2.31-.64,3.65v7.18c0,1.34.21,2.56.64,3.65.43,1.09,1.03,2.03,1.82,2.8.79.78,1.72,1.38,2.82,1.81,1.09.43,2.3.64,3.63.64h9.17c1.33,0,2.54-.21,3.63-.64,1.09-.43,2.03-1.03,2.82-1.81.79-.78,1.39-1.71,1.82-2.8.43-1.09.64-2.31.64-3.65v-7.18Z"/>
        <path class="cls-1" d="m295.69,16.14l-17.78,36.22c-.28.56-.69,1.01-1.24,1.35-.55.34-1.16.51-1.82.51s-1.24-.17-1.79-.51c-.55-.34-.97-.79-1.27-1.35l-17.76-36.22h7.62l13.2,27.06,13.25-27.06h7.6Z"/>
        <path class="cls-1" d="m338.17,38.5c0,2.29-.39,4.39-1.18,6.31s-1.88,3.58-3.27,4.98c-1.4,1.4-3.05,2.48-4.96,3.26-1.91.78-3.99,1.17-6.25,1.17h-9.22c-2.25,0-4.34-.39-6.26-1.17-1.92-.78-3.58-1.86-4.98-3.26-1.4-1.4-2.49-3.05-3.29-4.98s-1.19-4.03-1.19-6.31v-7.18c0-2.27.4-4.37,1.19-6.3.79-1.93,1.89-3.59,3.29-4.98,1.4-1.39,3.06-2.48,4.98-3.26,1.92-.79,4.01-1.18,6.26-1.18h9.22c2.25,0,4.33.39,6.25,1.18,1.91.79,3.57,1.87,4.96,3.26,1.4,1.39,2.49,3.05,3.27,4.98.79,1.93,1.18,4.03,1.18,6.3v7.18Zm-6.81-7.18c0-1.34-.21-2.56-.64-3.65-.43-1.09-1.03-2.03-1.81-2.8s-1.71-1.38-2.8-1.81c-1.09-.43-2.29-.64-3.6-.64h-9.22c-1.33,0-2.54.21-3.63.64-1.09.43-2.03,1.03-2.82,1.81-.79.78-1.39,1.71-1.82,2.8-.43,1.09-.64,2.31-.64,3.65v7.18c0,1.34.21,2.56.64,3.65.43,1.09,1.04,2.03,1.82,2.8.79.78,1.72,1.38,2.82,1.81,1.09.43,2.3.64,3.63.64h9.17c1.33,0,2.54-.21,3.63-.64,1.09-.43,2.03-1.03,2.82-1.81.79-.78,1.39-1.71,1.82-2.8.43-1.09.64-2.31.64-3.65v-7.18Z"/>
        <path class="cls-1" d="m351.77,53.69h-6.81V16.14h6.81v37.56Z"/>
        <path class="cls-1" d="m393.36,53.69h-24.57c-.63,0-1.31-.07-2.03-.22s-1.44-.38-2.15-.69-1.38-.72-2.03-1.22c-.65-.5-1.22-1.1-1.72-1.81-.5-.71-.89-1.53-1.19-2.46-.3-.93-.45-1.99-.45-3.16v-18.44c0-.63.07-1.3.22-2.03s.38-1.44.69-2.15c.31-.71.72-1.38,1.23-2.03.51-.65,1.11-1.22,1.82-1.72.71-.5,1.52-.89,2.45-1.19s1.97-.45,3.14-.45h24.57v6.81h-24.57c-.89,0-1.57.24-2.04.71s-.71,1.17-.71,2.1v18.39c0,.87.24,1.55.72,2.03s1.16.72,2.03.72h24.57v6.81Z"/>
        <path class="cls-1" d="m433.75,53.69h-24.57c-.94,0-1.97-.17-3.09-.5-1.12-.33-2.15-.88-3.1-1.64-.95-.76-1.75-1.75-2.38-2.96-.64-1.21-.96-2.7-.96-4.47v-24.57c0-.47.09-.92.26-1.34.17-.42.42-.79.72-1.1s.67-.56,1.09-.73.87-.26,1.36-.26h30.67v6.81h-27.29v21.19c0,.89.24,1.57.71,2.04s1.16.71,2.07.71h24.52v6.81Zm-3.06-15.35h-21.5v-6.86h21.5v6.86Z"/>
      </g>
      <g>
        <path class="cls-2" d="m34.91,69.83C15.63,69.83,0,54.2,0,34.91S15.63,0,34.91,0s34.91,15.63,34.91,34.91-15.63,34.91-34.91,34.91Zm0-12.04c12.63,0,22.88-10.24,22.88-22.88s-10.24-22.88-22.88-22.88-22.88,10.24-22.88,22.88,10.24,22.88,22.88,22.88Z"/>
        <path class="cls-3" d="m34.91,69.83C15.63,69.83,0,54.2,0,34.91S15.63,0,34.91,0s34.91,15.63,34.91,34.91-15.63,34.91-34.91,34.91Zm0-12.04c12.63,0,22.88-10.24,22.88-22.88s-10.24-22.88-22.88-22.88-22.88,10.24-22.88,22.88,10.24,22.88,22.88,22.88Z"/>
      </g>
    </g>
  </g>
</svg>